<svg id="svg" version="1.1" xmlns="http://www.w3.org/2000/svg" xmlns:xlink="http://www.w3.org/1999/xlink" width="400" height="400" viewBox="0, 0, 400,400"><g id="svgg"><path id="path0" d="M84.400 203.000 L 84.400 214.800 107.524 214.800 C 125.391 214.800,130.802 214.914,131.331 215.300 C 132.119 215.877,132.094 279.400,131.303 285.000 C 130.403 291.379,126.327 298.201,122.904 299.060 C 122.407 299.185,122.000 299.439,122.000 299.625 C 122.000 299.811,121.368 300.082,120.596 300.227 C 119.823 300.372,119.093 300.650,118.972 300.845 C 118.560 301.512,106.818 301.268,104.813 300.552 C 101.936 299.524,99.135 298.194,96.987 296.838 C 95.016 295.593,88.000 288.946,88.000 288.324 C 88.000 287.517,86.427 288.122,85.560 289.262 C 84.781 290.286,78.306 298.079,75.185 301.750 C 72.332 305.105,71.200 306.680,71.200 307.296 C 71.200 308.434,79.119 316.046,81.151 316.860 C 81.508 317.004,82.197 317.499,82.683 317.960 C 83.169 318.422,83.833 318.800,84.160 318.800 C 84.486 318.800,84.857 318.969,84.984 319.175 C 85.249 319.602,87.537 320.800,88.090 320.800 C 88.292 320.800,88.727 321.070,89.057 321.400 C 89.387 321.730,89.994 322.000,90.405 322.000 C 90.816 322.000,91.264 322.180,91.400 322.400 C 91.536 322.620,92.042 322.806,92.524 322.813 C 93.006 322.820,93.749 323.090,94.176 323.413 C 94.604 323.736,95.448 324.000,96.053 324.000 C 96.658 324.000,97.264 324.180,97.400 324.400 C 97.536 324.620,98.368 324.800,99.250 324.800 C 100.131 324.800,101.246 325.014,101.726 325.276 C 102.575 325.737,110.169 326.518,113.400 326.476 C 118.929 326.403,125.536 325.836,126.480 325.353 C 127.074 325.049,128.279 324.800,129.157 324.800 C 130.034 324.800,130.864 324.620,131.000 324.400 C 131.136 324.180,131.742 324.000,132.347 324.000 C 132.952 324.000,133.796 323.736,134.224 323.413 C 134.651 323.090,135.317 322.820,135.705 322.813 C 136.343 322.801,136.973 322.544,138.800 321.549 C 139.130 321.369,140.030 320.913,140.800 320.534 C 141.570 320.156,142.757 319.431,143.438 318.923 C 144.119 318.415,144.847 318.000,145.056 318.000 C 145.705 318.000,152.407 311.096,153.300 309.507 C 153.766 308.678,154.294 308.000,154.474 308.000 C 154.653 308.000,154.800 307.651,154.800 307.224 C 154.800 306.797,154.969 306.343,155.175 306.216 C 155.649 305.922,156.800 303.637,156.800 302.988 C 156.800 302.718,157.070 302.274,157.400 302.000 C 157.730 301.726,158.000 301.085,158.000 300.575 C 158.000 300.065,158.180 299.536,158.400 299.400 C 158.620 299.264,158.800 298.644,158.800 298.022 C 158.800 297.400,159.069 296.376,159.398 295.746 C 159.726 295.116,159.996 293.961,159.998 293.180 C 159.999 292.399,160.167 291.589,160.371 291.380 C 161.113 290.620,161.257 283.369,161.436 237.700 L 161.619 191.200 123.010 191.200 L 84.400 191.200 84.400 203.000 M193.200 258.400 L 193.200 325.600 208.400 325.600 L 223.600 325.600 223.600 308.050 C 223.600 298.397,223.713 289.938,223.850 289.250 L 224.100 288.000 238.380 288.000 L 252.661 288.000 253.459 288.900 C 254.454 290.021,257.200 293.926,257.200 294.218 C 257.200 294.337,257.650 294.920,258.200 295.513 C 258.750 296.107,259.200 296.776,259.200 297.000 C 259.200 297.224,259.650 297.893,260.200 298.487 C 260.750 299.080,261.200 299.675,261.200 299.810 C 261.200 300.049,265.759 306.604,267.036 308.200 C 267.388 308.640,267.867 309.405,268.102 309.900 C 268.336 310.395,268.680 310.800,268.864 310.800 C 269.049 310.800,269.200 310.988,269.200 311.217 C 269.200 311.446,269.386 311.851,269.613 312.117 C 270.356 312.988,275.200 320.022,275.200 320.231 C 275.200 320.343,275.650 320.920,276.200 321.513 C 276.750 322.107,277.200 322.764,277.200 322.974 C 277.200 323.184,277.684 323.861,278.275 324.478 L 279.350 325.600 295.075 325.600 C 305.292 325.600,310.800 325.460,310.800 325.200 C 310.800 324.980,310.649 324.800,310.464 324.800 C 310.280 324.800,309.936 324.395,309.702 323.900 C 309.467 323.405,308.986 322.640,308.631 322.200 C 307.559 320.868,302.800 313.988,302.800 313.769 C 302.800 313.657,302.350 313.080,301.800 312.487 C 301.250 311.893,300.800 311.196,300.800 310.937 C 300.800 310.679,300.665 310.407,300.500 310.333 C 300.071 310.143,298.000 307.317,298.000 306.923 C 298.000 306.741,297.593 306.144,297.096 305.596 C 296.599 305.048,295.849 304.065,295.428 303.410 C 295.008 302.756,294.509 302.036,294.320 301.810 C 293.591 300.943,288.800 293.963,288.800 293.769 C 288.800 293.657,288.350 293.080,287.800 292.487 C 287.250 291.893,286.800 291.196,286.800 290.937 C 286.800 290.679,286.665 290.407,286.500 290.333 C 286.071 290.143,284.000 287.317,284.000 286.923 C 284.000 286.741,283.557 286.115,283.016 285.531 C 281.169 283.539,281.273 282.628,283.469 281.578 C 286.216 280.264,291.434 276.964,293.125 275.470 C 295.896 273.022,300.800 267.903,300.800 267.458 C 300.800 267.360,301.430 266.344,302.201 265.198 C 302.972 264.053,303.887 262.460,304.235 261.658 C 304.583 260.856,305.032 259.887,305.234 259.505 C 305.867 258.305,306.788 255.434,306.807 254.600 C 306.817 254.160,307.090 253.451,307.413 253.024 C 307.738 252.594,308.000 251.398,308.000 250.347 C 308.000 249.302,308.180 248.336,308.400 248.200 C 308.644 248.049,308.800 244.937,308.800 240.200 C 308.800 235.463,308.644 232.351,308.400 232.200 C 308.180 232.064,308.000 231.238,308.000 230.364 C 308.000 229.489,307.730 228.128,307.400 227.338 C 307.070 226.549,306.800 225.485,306.800 224.975 C 306.800 224.465,306.620 223.936,306.400 223.800 C 306.180 223.664,306.000 223.126,306.000 222.605 C 306.000 222.084,305.730 221.387,305.400 221.057 C 305.070 220.727,304.800 220.290,304.800 220.085 C 304.800 216.521,295.539 205.683,288.976 201.567 C 287.449 200.610,286.140 199.685,286.067 199.513 C 285.993 199.341,285.693 199.200,285.399 199.200 C 284.757 199.200,282.255 197.923,282.067 197.500 C 281.993 197.335,281.599 197.200,281.190 197.200 C 280.782 197.200,280.336 197.020,280.200 196.800 C 280.064 196.580,279.676 196.400,279.337 196.400 C 278.998 196.400,278.154 196.152,277.460 195.850 C 275.721 195.091,272.050 194.000,271.234 194.000 C 270.863 194.000,270.389 193.837,270.180 193.637 C 269.971 193.437,268.900 193.175,267.800 193.055 C 261.009 192.312,257.748 191.964,254.200 191.602 C 251.890 191.367,238.159 191.196,221.700 191.198 L 193.200 191.200 193.200 258.400 M255.400 216.018 C 260.358 216.489,262.068 216.813,262.989 217.452 C 263.423 217.753,264.027 218.000,264.331 218.000 C 266.372 218.000,271.885 222.106,274.692 225.716 C 278.904 231.134,279.595 244.196,276.061 251.600 C 273.700 256.546,268.529 261.057,263.896 262.213 C 263.289 262.365,262.694 262.649,262.573 262.844 C 262.452 263.040,261.769 263.200,261.056 263.200 C 260.343 263.200,259.535 263.425,259.260 263.700 C 258.551 264.410,225.015 264.676,224.174 263.978 C 223.396 263.333,223.305 216.855,224.080 216.080 C 224.651 215.509,249.536 215.460,255.400 216.018 " stroke="none" fill="#040404" fill-rule="evenodd"></path><path id="path1" d="M0.000 200.000 L 0.000 400.000 200.000 400.000 L 400.000 400.000 400.000 200.000 L 400.000 0.000 200.000 0.000 L 0.000 0.000 0.000 200.000 M162.200 238.400 C 162.200 289.287,162.224 288.620,160.158 296.200 C 159.798 297.520,159.414 299.008,159.304 299.506 C 159.194 300.004,158.946 300.510,158.752 300.630 C 158.559 300.749,158.400 301.121,158.400 301.456 C 158.400 302.332,155.870 307.246,154.005 309.993 C 138.769 332.428,95.260 333.354,73.713 311.702 C 69.663 307.632,69.466 307.149,71.100 305.299 C 72.305 303.935,72.557 303.633,75.201 300.400 C 76.190 299.190,77.094 298.110,77.209 298.000 C 77.431 297.788,80.987 293.541,82.000 292.280 C 82.330 291.869,83.018 291.053,83.529 290.466 C 84.039 289.880,84.916 288.815,85.476 288.100 C 86.919 286.259,87.256 286.392,90.921 290.259 C 93.777 293.271,97.915 296.800,98.591 296.800 C 98.715 296.800,99.487 297.220,100.308 297.734 C 101.894 298.726,101.892 298.725,106.200 299.969 C 110.609 301.241,117.423 300.893,120.739 299.226 C 121.103 299.043,121.875 298.673,122.455 298.403 C 123.840 297.760,126.767 294.823,128.039 292.800 C 128.714 291.728,128.743 291.646,129.969 287.400 C 130.751 284.689,130.777 283.506,130.788 250.300 L 130.800 216.000 107.614 216.000 C 85.100 216.000,84.416 215.978,84.014 215.226 C 83.554 214.367,83.417 191.517,83.869 191.065 C 84.016 190.917,101.701 190.842,123.169 190.898 L 162.200 191.000 162.200 238.400 M263.800 191.535 C 288.951 195.582,304.103 208.448,308.865 229.800 C 309.600 233.097,309.593 247.351,308.854 250.600 C 306.322 261.741,301.530 269.603,292.944 276.701 C 291.814 277.635,290.748 278.400,290.576 278.400 C 290.404 278.400,289.979 278.654,289.631 278.964 C 289.284 279.274,287.920 280.106,286.600 280.813 C 285.280 281.520,283.783 282.358,283.273 282.676 L 282.346 283.254 283.373 284.600 C 283.938 285.341,284.400 286.139,284.400 286.373 C 284.400 286.608,284.552 286.800,284.737 286.800 C 284.922 286.800,285.413 287.430,285.828 288.200 C 286.243 288.970,286.682 289.600,286.805 289.600 C 286.927 289.600,287.354 290.153,287.754 290.830 C 288.506 292.103,297.916 305.586,299.040 307.000 C 299.389 307.440,299.867 308.205,300.102 308.700 C 300.336 309.195,300.680 309.600,300.864 309.600 C 301.049 309.600,301.200 309.855,301.200 310.167 C 301.200 310.478,301.335 310.793,301.500 310.867 C 301.665 310.940,302.353 311.810,303.028 312.800 C 303.703 313.790,306.025 317.093,308.187 320.140 C 311.264 324.476,311.996 325.757,311.559 326.034 C 310.889 326.458,279.195 326.516,278.552 326.094 C 278.180 325.850,275.995 322.851,274.403 320.400 C 274.188 320.070,273.053 318.448,271.880 316.797 C 270.707 315.145,268.708 312.265,267.438 310.397 C 266.167 308.528,264.872 306.640,264.559 306.200 C 264.246 305.760,262.376 303.060,260.404 300.200 C 258.432 297.340,256.679 294.817,256.509 294.593 C 256.339 294.369,255.497 293.146,254.638 291.874 C 252.466 288.658,253.232 288.800,238.030 288.800 L 224.408 288.800 224.304 307.500 L 224.200 326.200 208.600 326.200 L 193.000 326.200 192.899 258.487 L 192.798 190.774 226.899 190.929 C 249.527 191.032,261.942 191.236,263.800 191.535 M224.400 240.000 L 224.400 263.600 239.676 263.600 C 258.171 263.600,262.216 262.989,267.928 259.335 C 280.944 251.009,281.215 229.416,268.408 221.032 C 262.104 216.905,258.978 216.400,239.728 216.400 L 224.400 216.400 224.400 240.000 " stroke="none" fill="#fbfbfb" fill-rule="evenodd"></path><path id="path2" d="M83.781 191.305 C 83.675 191.583,83.635 197.028,83.694 203.405 L 83.801 215.000 84.000 202.900 C 84.110 196.245,84.149 190.800,84.087 190.800 C 84.026 190.800,83.888 191.027,83.781 191.305 M161.800 237.520 C 161.800 263.194,161.671 285.550,161.513 287.200 C 161.263 289.800,161.285 289.987,161.676 288.600 C 162.205 286.725,162.632 191.672,162.114 191.154 C 161.941 190.981,161.800 211.846,161.800 237.520 M254.800 191.168 C 260.245 191.726,265.704 191.997,263.200 191.584 C 261.990 191.385,258.930 191.141,256.400 191.041 C 252.694 190.896,252.383 190.920,254.800 191.168 M266.200 192.400 C 266.640 192.589,267.450 192.744,268.000 192.744 C 268.912 192.744,268.929 192.713,268.200 192.400 C 267.760 192.211,266.950 192.056,266.400 192.056 C 265.488 192.056,265.471 192.087,266.200 192.400 M271.200 193.400 C 271.970 193.697,272.960 193.945,273.400 193.952 C 273.840 193.959,273.480 193.705,272.600 193.388 C 270.582 192.661,269.309 192.672,271.200 193.400 M274.800 194.400 C 275.130 194.613,275.670 194.788,276.000 194.788 C 276.533 194.788,276.533 194.745,276.000 194.400 C 275.670 194.187,275.130 194.012,274.800 194.012 C 274.267 194.012,274.267 194.055,274.800 194.400 M278.000 195.474 C 278.770 195.816,279.713 196.254,280.095 196.448 C 280.477 196.642,281.017 196.785,281.295 196.767 C 281.970 196.722,277.967 194.849,277.200 194.850 C 276.870 194.851,277.230 195.131,278.000 195.474 M282.033 196.957 C 282.562 197.455,285.325 198.808,285.486 198.648 C 285.591 198.542,284.906 198.083,283.964 197.628 C 282.339 196.843,281.663 196.608,282.033 196.957 M286.033 198.963 C 286.356 199.278,290.482 202.000,290.637 202.000 C 291.040 202.000,293.353 204.114,297.181 207.979 C 299.481 210.300,300.836 211.480,300.193 210.600 C 298.230 207.915,293.179 203.253,289.755 200.967 C 287.095 199.190,285.247 198.195,286.033 198.963 M302.789 215.030 C 303.688 216.587,305.045 219.287,305.807 221.030 C 306.568 222.774,307.192 223.987,307.195 223.726 C 307.208 222.476,303.028 214.086,301.751 212.800 C 301.424 212.470,301.891 213.474,302.789 215.030 M84.200 215.600 C 84.360 215.859,92.604 216.000,107.624 216.000 L 130.800 216.000 130.898 249.500 L 130.995 283.000 131.100 249.644 C 131.176 225.329,131.082 216.140,130.753 215.744 C 130.188 215.062,83.779 214.919,84.200 215.600 M224.184 216.500 C 224.078 216.775,224.039 227.530,224.096 240.400 L 224.200 263.800 241.000 263.797 C 253.701 263.796,258.044 263.672,258.800 263.291 C 259.747 262.815,259.726 262.802,258.400 263.050 C 257.630 263.195,249.665 263.385,240.700 263.473 L 224.400 263.634 224.400 240.022 L 224.400 216.409 240.100 216.300 L 255.800 216.190 240.087 216.095 C 227.815 216.021,224.333 216.109,224.184 216.500 M256.800 216.800 C 257.350 216.976,258.250 217.120,258.800 217.120 L 259.800 217.120 258.800 216.800 C 258.250 216.624,257.350 216.480,256.800 216.480 L 255.800 216.480 256.800 216.800 M262.788 218.238 C 269.086 220.383,274.330 225.130,276.003 230.200 C 276.293 231.080,276.602 231.586,276.690 231.326 C 277.907 227.705,265.894 217.145,260.631 217.210 C 260.174 217.216,261.145 217.678,262.788 218.238 M307.353 225.200 C 307.890 227.859,308.398 229.115,308.178 227.238 C 308.064 226.270,307.786 225.190,307.561 224.838 C 307.236 224.332,307.193 224.407,307.353 225.200 M308.468 230.000 C 308.487 231.650,309.117 233.356,309.132 231.800 C 309.138 231.140,308.989 230.240,308.800 229.800 C 308.487 229.073,308.457 229.091,308.468 230.000 M277.110 233.400 C 277.270 234.280,277.400 237.250,277.400 240.000 C 277.400 242.750,277.270 245.720,277.110 246.600 L 276.821 248.200 277.380 246.600 C 277.743 245.560,277.939 243.251,277.939 240.000 C 277.939 236.749,277.743 234.440,277.380 233.400 L 276.821 231.800 277.110 233.400 M309.361 240.000 C 309.361 243.410,309.422 244.805,309.497 243.100 C 309.572 241.395,309.572 238.605,309.497 236.900 C 309.422 235.195,309.361 236.590,309.361 240.000 M308.421 250.200 C 308.141 251.740,307.571 254.065,307.155 255.367 C 306.740 256.668,306.486 257.819,306.590 257.924 C 306.796 258.129,306.842 258.012,307.723 255.000 C 308.690 251.700,309.314 248.542,309.116 247.953 C 309.014 247.649,308.701 248.660,308.421 250.200 M274.807 252.299 C 273.615 254.582,270.281 257.967,267.780 259.433 C 266.781 260.018,266.045 260.578,266.144 260.677 C 267.225 261.759,276.468 252.404,275.926 250.778 C 275.856 250.569,275.353 251.254,274.807 252.299 M305.887 259.010 C 305.748 259.445,305.365 260.385,305.036 261.100 C 304.708 261.815,304.516 262.400,304.611 262.400 C 304.961 262.400,306.442 259.125,306.293 258.680 C 306.209 258.428,306.026 258.576,305.887 259.010 M262.600 261.822 C 261.280 262.334,260.470 262.760,260.800 262.770 C 261.528 262.792,263.901 261.963,265.000 261.304 C 266.200 260.584,265.286 260.782,262.600 261.822 M302.093 266.144 C 300.935 267.935,299.348 270.075,298.568 270.900 C 297.788 271.725,297.291 272.400,297.463 272.400 C 298.165 272.400,304.785 263.437,304.370 263.047 C 304.276 262.959,303.252 264.353,302.093 266.144 M295.400 274.051 C 293.675 275.818,288.233 279.619,285.200 281.175 C 281.684 282.979,281.714 282.929,282.966 284.821 C 283.568 285.730,284.155 286.379,284.270 286.263 C 284.386 286.147,284.000 285.423,283.413 284.653 L 282.346 283.254 283.273 282.676 C 283.783 282.358,285.280 281.520,286.600 280.813 C 287.920 280.106,289.284 279.274,289.631 278.964 C 289.979 278.654,290.404 278.400,290.576 278.400 C 290.928 278.400,294.408 275.583,296.131 273.903 C 296.753 273.296,297.113 272.805,296.931 272.811 C 296.749 272.817,296.060 273.375,295.400 274.051 M130.222 286.329 C 130.058 287.059,130.022 287.756,130.142 287.876 C 130.443 288.177,130.920 286.156,130.699 285.517 C 130.601 285.233,130.386 285.598,130.222 286.329 M85.476 288.100 C 84.916 288.815,84.039 289.880,83.529 290.466 C 83.018 291.053,82.330 291.869,82.000 292.280 C 80.987 293.541,77.431 297.788,77.209 298.000 C 77.094 298.110,76.190 299.190,75.201 300.400 C 72.557 303.633,72.305 303.935,71.100 305.299 C 70.495 305.984,70.002 306.827,70.004 307.172 C 70.008 307.888,73.991 312.418,74.600 312.400 C 74.867 312.392,74.867 312.290,74.600 312.094 C 72.976 310.900,70.439 307.560,70.671 306.922 C 70.883 306.340,73.538 302.831,74.395 302.000 C 74.724 301.681,76.881 299.108,78.336 297.300 C 79.071 296.386,80.036 295.225,80.481 294.719 C 80.926 294.214,81.944 292.992,82.745 292.003 C 87.312 286.365,87.099 286.425,90.065 289.969 C 92.879 293.333,100.775 299.359,101.464 298.669 C 101.625 298.508,98.971 296.800,98.560 296.800 C 97.912 296.800,93.718 293.209,90.921 290.259 C 87.256 286.392,86.919 286.259,85.476 288.100 M284.688 287.300 C 284.901 287.575,286.830 290.275,288.976 293.300 C 291.122 296.325,292.966 298.800,293.074 298.800 C 293.182 298.800,292.468 297.675,291.488 296.300 C 290.507 294.925,289.106 292.900,288.373 291.800 C 287.641 290.700,286.929 289.710,286.791 289.600 C 286.653 289.490,286.199 288.815,285.784 288.100 C 285.368 287.385,284.864 286.800,284.665 286.800 C 284.460 286.800,284.471 287.018,284.688 287.300 M129.254 289.802 C 128.964 290.604,128.809 291.342,128.909 291.443 C 129.181 291.714,130.105 289.315,129.931 288.792 C 129.848 288.545,129.544 289.000,129.254 289.802 M238.329 288.790 L 252.458 289.000 253.667 290.400 L 254.875 291.800 253.738 290.109 L 252.600 288.417 238.400 288.498 L 224.200 288.580 238.329 288.790 M224.096 307.509 L 224.000 326.018 208.438 325.909 C 199.879 325.849,192.960 325.935,193.062 326.100 C 193.407 326.658,224.001 326.462,224.217 325.900 C 224.322 325.625,224.360 317.210,224.300 307.200 L 224.192 289.000 224.096 307.509 M160.254 293.816 C 159.874 295.567,159.478 297.450,159.373 298.000 L 159.183 299.000 159.600 298.043 C 160.213 296.634,161.291 291.672,161.105 291.114 C 161.016 290.849,160.633 292.065,160.254 293.816 M128.001 292.797 C 127.203 294.290,125.327 296.313,122.947 298.251 C 121.858 299.138,123.183 298.442,124.657 297.354 C 126.052 296.323,129.018 292.485,128.680 292.147 C 128.562 292.028,128.256 292.321,128.001 292.797 M255.519 293.197 C 255.893 293.856,256.347 294.396,256.527 294.397 C 256.707 294.399,256.470 293.860,256.000 293.200 C 254.902 291.658,254.642 291.657,255.519 293.197 M256.800 294.911 C 256.800 295.078,263.713 305.105,264.314 305.810 C 264.507 306.036,265.003 306.756,265.417 307.410 C 266.883 309.725,272.461 317.600,272.635 317.600 C 272.889 317.600,270.659 314.226,270.300 314.067 C 270.135 313.993,270.000 313.775,270.000 313.582 C 270.000 313.388,268.242 310.748,266.093 307.715 C 263.944 304.682,261.129 300.620,259.837 298.689 C 257.767 295.595,256.800 294.392,256.800 294.911 M103.000 299.414 C 103.660 299.717,104.470 299.965,104.800 299.966 C 105.130 299.968,104.794 299.706,104.054 299.384 C 102.353 298.646,101.382 298.674,103.000 299.414 M120.000 299.433 C 119.123 299.920,119.098 299.987,119.800 299.981 C 120.240 299.978,120.949 299.710,121.376 299.387 C 122.381 298.627,121.393 298.660,120.000 299.433 M294.291 300.900 C 294.897 301.835,295.486 302.690,295.600 302.800 C 295.714 302.910,296.303 303.765,296.909 304.700 C 297.515 305.635,298.109 306.400,298.229 306.400 C 298.526 306.400,298.215 305.894,295.707 302.300 C 293.408 299.004,292.444 298.052,294.291 300.900 M106.000 300.400 C 106.330 300.613,107.050 300.778,107.600 300.766 C 108.516 300.746,108.533 300.715,107.800 300.400 C 106.616 299.891,105.213 299.891,106.000 300.400 M116.800 300.400 L 115.800 300.720 116.800 300.754 C 117.350 300.773,118.070 300.613,118.400 300.400 C 119.164 299.906,118.342 299.906,116.800 300.400 M156.635 304.557 C 152.103 313.951,144.594 320.361,133.800 324.051 C 132.040 324.652,130.802 325.157,131.049 325.172 C 134.548 325.388,144.953 319.726,149.705 315.021 C 153.366 311.395,158.828 302.916,158.327 301.637 C 158.257 301.459,157.496 302.774,156.635 304.557 M299.619 308.628 C 300.311 309.634,300.990 310.344,301.127 310.206 C 301.264 310.069,301.188 309.831,300.958 309.678 C 300.728 309.525,300.199 308.815,299.784 308.100 C 299.368 307.385,298.878 306.800,298.695 306.800 C 298.511 306.800,298.928 307.623,299.619 308.628 M302.000 312.000 C 303.098 313.542,303.358 313.543,302.481 312.003 C 302.107 311.344,301.653 310.804,301.473 310.803 C 301.293 310.801,301.530 311.340,302.000 312.000 M75.484 313.552 C 76.340 314.451,81.289 318.205,82.409 318.805 C 83.871 319.587,83.217 318.850,81.300 317.555 C 80.255 316.849,78.471 315.490,77.336 314.536 C 75.212 312.749,74.218 312.222,75.484 313.552 M304.477 315.400 C 305.253 316.500,306.672 318.570,307.629 320.000 C 308.586 321.430,309.470 322.690,309.594 322.800 C 310.063 323.218,311.200 325.190,311.200 325.586 C 311.200 325.865,305.907 326.000,295.020 326.000 L 278.840 326.000 276.985 323.400 C 274.365 319.729,273.970 319.782,276.467 323.470 C 278.619 326.650,277.045 326.401,294.929 326.394 C 303.768 326.391,311.252 326.228,311.559 326.034 C 312.081 325.703,305.681 315.916,303.690 314.000 C 303.347 313.670,303.701 314.300,304.477 315.400 M273.519 319.197 C 273.893 319.856,274.347 320.396,274.527 320.397 C 274.707 320.399,274.470 319.860,274.000 319.200 C 272.902 317.658,272.642 317.657,273.519 319.197 M83.711 319.448 C 84.074 320.022,90.629 323.215,91.375 323.181 C 91.720 323.165,89.645 322.087,83.844 319.269 C 83.649 319.174,83.589 319.255,83.711 319.448 M93.000 323.787 C 94.796 324.588,97.575 325.358,97.813 325.120 C 97.929 325.005,97.163 324.692,96.111 324.425 C 95.060 324.158,93.887 323.773,93.505 323.570 C 93.123 323.366,92.583 323.212,92.305 323.226 C 92.027 323.240,92.340 323.492,93.000 323.787 M99.000 325.600 C 100.184 326.109,101.587 326.109,100.800 325.600 C 100.470 325.387,99.750 325.222,99.200 325.234 C 98.284 325.254,98.267 325.285,99.000 325.600 M127.893 325.441 C 127.761 325.573,126.696 325.820,125.526 325.991 C 123.615 326.269,123.562 326.301,125.000 326.312 C 127.083 326.327,131.218 325.319,129.367 325.248 C 128.688 325.221,128.025 325.308,127.893 325.441 M102.305 326.283 C 102.802 326.379,103.522 326.375,103.905 326.275 C 104.287 326.175,103.880 326.096,103.000 326.101 C 102.120 326.105,101.807 326.187,102.305 326.283 M105.800 326.784 C 106.987 327.102,113.088 327.337,112.767 327.053 C 112.675 326.971,110.800 326.806,108.600 326.684 C 106.301 326.557,105.110 326.600,105.800 326.784 M117.200 326.800 L 114.200 327.056 117.200 327.105 C 118.850 327.132,120.920 327.005,121.800 326.823 L 123.400 326.492 121.800 326.518 C 120.920 326.532,118.850 326.659,117.200 326.800 " stroke="none" fill="#a3a3a3" fill-rule="evenodd"></path><path id="path3" d="M103.730 191.100 C 114.472 191.159,131.932 191.159,142.530 191.100 C 153.129 191.041,144.340 190.992,123.000 190.992 C 101.660 190.992,92.989 191.041,103.730 191.100 M192.985 191.300 C 192.880 191.575,192.841 221.950,192.898 258.800 L 193.002 325.800 193.101 258.503 L 193.200 191.205 222.700 191.100 L 252.200 190.995 222.687 190.897 C 199.373 190.820,193.135 190.905,192.985 191.300 M131.391 248.400 C 131.391 266.110,131.440 273.355,131.500 264.500 C 131.560 255.645,131.560 241.155,131.500 232.300 C 131.440 223.445,131.391 230.690,131.391 248.400 M270.800 222.125 C 270.800 222.194,271.385 222.779,272.100 223.425 L 273.400 224.600 272.225 223.300 C 271.130 222.088,270.800 221.816,270.800 222.125 M111.100 301.089 C 111.815 301.178,112.985 301.178,113.700 301.089 C 114.415 301.001,113.830 300.928,112.400 300.928 C 110.970 300.928,110.385 301.001,111.100 301.089 " stroke="none" fill="#7c7c7c" fill-rule="evenodd"></path><path id="path4" d="M84.191 203.000 L 84.200 215.000 107.488 215.103 C 130.304 215.204,130.784 215.223,131.203 216.006 C 131.499 216.559,131.595 226.931,131.515 249.788 C 131.452 267.929,131.522 282.463,131.672 282.086 C 132.447 280.131,132.017 215.637,131.226 215.214 C 130.719 214.942,122.536 214.800,107.432 214.800 L 84.412 214.800 84.297 202.900 L 84.182 191.000 84.191 203.000 M161.525 237.600 C 161.378 263.230,161.176 285.640,161.076 287.400 L 160.894 290.600 161.283 287.600 C 161.658 284.714,162.143 215.621,161.906 199.000 C 161.843 194.600,161.672 211.970,161.525 237.600 M253.800 191.618 C 254.900 191.790,256.610 191.922,257.600 191.912 L 259.400 191.893 257.400 191.582 C 256.300 191.410,254.590 191.278,253.600 191.288 L 251.800 191.307 253.800 191.618 M263.400 192.449 C 264.720 192.655,266.700 192.893,267.800 192.978 L 269.800 193.133 267.600 192.748 C 266.390 192.537,264.410 192.299,263.200 192.219 L 261.000 192.075 263.400 192.449 M273.800 194.612 C 274.680 194.929,275.670 195.183,276.000 195.176 C 276.330 195.170,275.880 194.905,275.000 194.588 C 274.120 194.271,273.130 194.017,272.800 194.024 C 272.470 194.030,272.920 194.295,273.800 194.612 M283.824 198.587 C 284.251 198.910,284.870 199.174,285.200 199.173 C 285.548 199.172,285.380 198.932,284.800 198.600 C 283.485 197.848,282.836 197.840,283.824 198.587 M286.012 199.514 C 286.018 199.672,287.293 200.571,288.844 201.513 C 290.394 202.455,291.562 203.062,291.438 202.862 C 291.110 202.330,285.998 199.177,286.012 199.514 M292.000 203.569 C 292.000 203.806,292.163 204.000,292.362 204.000 C 292.561 204.000,294.406 205.664,296.462 207.698 C 299.970 211.168,300.222 211.273,297.410 208.090 C 295.696 206.151,292.000 203.062,292.000 203.569 M301.264 213.500 C 302.000 214.545,302.857 215.895,303.168 216.499 C 303.480 217.104,303.797 217.536,303.874 217.459 C 304.173 217.160,300.633 211.600,300.143 211.600 C 300.023 211.600,300.527 212.455,301.264 213.500 M224.080 216.080 C 223.715 216.445,223.623 222.235,223.695 240.180 L 223.790 263.800 223.995 240.000 L 224.200 216.200 238.600 215.992 L 253.000 215.785 238.780 215.692 C 228.148 215.623,224.439 215.721,224.080 216.080 M257.233 216.144 C 257.325 216.223,257.940 216.408,258.600 216.556 C 259.476 216.752,259.638 216.715,259.200 216.418 C 258.660 216.053,256.832 215.798,257.233 216.144 M261.200 217.088 C 261.750 217.187,262.371 217.432,262.580 217.634 C 262.789 217.835,263.138 218.000,263.356 218.000 C 263.575 218.000,263.404 217.736,262.976 217.413 C 262.549 217.090,261.750 216.844,261.200 216.867 L 260.200 216.909 261.200 217.088 M265.376 218.578 C 265.804 218.920,266.316 219.200,266.515 219.200 C 266.714 219.200,267.399 219.572,268.038 220.027 C 268.677 220.482,269.200 220.703,269.200 220.518 C 269.200 220.203,267.931 219.460,265.600 218.407 C 264.654 217.980,264.642 217.989,265.376 218.578 M304.000 218.376 C 304.000 218.583,304.180 218.864,304.400 219.000 C 304.620 219.136,304.800 219.519,304.800 219.852 C 304.800 220.185,305.070 220.727,305.400 221.057 C 306.183 221.840,306.159 221.679,305.191 219.675 C 304.404 218.047,304.000 217.606,304.000 218.376 M270.904 222.007 C 271.731 222.709,273.152 224.345,274.062 225.642 C 274.972 226.939,275.786 228.000,275.872 228.000 C 276.048 228.000,275.269 226.477,274.760 225.825 C 273.117 223.722,271.706 222.255,270.653 221.560 C 269.642 220.891,269.690 220.978,270.904 222.007 M306.854 225.054 C 306.825 225.524,307.063 226.514,307.384 227.254 C 307.813 228.241,307.973 228.381,307.984 227.780 C 307.993 227.329,307.835 226.789,307.634 226.580 C 307.432 226.371,307.187 225.750,307.088 225.200 C 306.937 224.354,306.901 224.332,306.854 225.054 M276.014 228.454 C 276.006 228.594,276.263 229.314,276.584 230.054 C 276.906 230.794,277.169 231.130,277.170 230.800 C 277.172 230.224,276.043 227.934,276.014 228.454 M308.000 230.910 C 308.000 231.483,308.187 232.068,308.416 232.210 C 308.689 232.379,308.738 232.077,308.560 231.334 C 308.192 229.801,308.000 229.656,308.000 230.910 M308.962 240.200 C 308.962 243.720,309.024 245.106,309.098 243.281 C 309.172 241.456,309.172 238.576,309.097 236.881 C 309.022 235.186,308.961 236.680,308.962 240.200 M278.157 240.000 C 278.157 242.970,278.220 244.185,278.297 242.700 C 278.374 241.215,278.374 238.785,278.297 237.300 C 278.220 235.815,278.157 237.030,278.157 240.000 M277.400 246.800 C 277.250 247.273,277.217 247.750,277.327 247.860 C 277.437 247.970,277.650 247.673,277.800 247.200 C 277.950 246.727,277.983 246.250,277.873 246.140 C 277.763 246.030,277.550 246.327,277.400 246.800 M308.267 248.267 C 308.120 248.413,308.015 248.998,308.034 249.567 C 308.068 250.581,308.075 250.579,308.421 249.420 C 308.785 248.203,308.731 247.802,308.267 248.267 M276.668 249.484 C 276.539 249.878,276.165 250.785,275.836 251.500 C 275.508 252.215,275.319 252.800,275.417 252.800 C 275.723 252.800,277.314 249.181,277.102 248.969 C 276.992 248.858,276.796 249.090,276.668 249.484 M307.285 253.213 C 307.018 253.640,306.808 254.397,306.818 254.895 C 306.830 255.537,306.999 255.339,307.400 254.215 C 308.038 252.423,307.998 252.071,307.285 253.213 M273.674 254.872 C 273.012 255.822,272.140 256.870,271.736 257.201 C 269.905 258.697,266.859 260.800,266.523 260.800 C 266.319 260.800,265.804 261.073,265.376 261.407 C 264.403 262.167,266.343 261.434,268.000 260.415 C 270.754 258.721,275.600 253.867,275.067 253.334 C 274.963 253.229,274.336 253.921,273.674 254.872 M305.285 259.213 C 305.018 259.640,304.801 260.217,304.802 260.495 C 304.804 260.773,305.077 260.478,305.410 259.840 C 306.103 258.511,306.011 258.050,305.285 259.213 M262.600 262.400 C 262.464 262.620,261.868 262.825,261.276 262.854 C 260.458 262.896,260.397 262.948,261.021 263.072 C 261.472 263.162,262.372 262.958,263.021 262.620 C 263.752 262.239,263.943 262.004,263.524 262.002 C 263.152 262.001,262.736 262.180,262.600 262.400 M302.839 264.224 C 302.377 265.007,302.180 265.536,302.402 265.399 C 302.836 265.131,304.134 262.800,303.850 262.800 C 303.756 262.800,303.301 263.441,302.839 264.224 M258.200 263.600 C 257.429 263.931,257.431 263.945,258.276 263.972 C 258.758 263.987,259.264 263.820,259.400 263.600 C 259.692 263.127,259.301 263.127,258.200 263.600 M232.300 264.300 C 236.755 264.364,244.045 264.364,248.500 264.300 C 252.955 264.235,249.310 264.182,240.400 264.182 C 231.490 264.182,227.845 264.235,232.300 264.300 M300.000 268.306 C 300.000 268.702,295.004 273.903,293.250 275.332 C 292.507 275.938,291.997 276.530,292.115 276.648 C 292.388 276.921,300.400 268.947,300.400 268.403 C 300.400 268.181,300.310 268.000,300.200 268.000 C 300.090 268.000,300.000 268.138,300.000 268.306 M289.000 278.414 C 287.680 279.277,286.732 279.988,286.892 279.992 C 287.267 280.002,291.600 277.237,291.600 276.988 C 291.600 276.712,291.604 276.710,289.000 278.414 M130.728 285.800 C 130.590 286.900,130.363 288.340,130.224 289.000 C 130.072 289.718,130.227 289.508,130.608 288.477 C 130.959 287.529,131.186 286.089,131.113 285.277 C 130.986 283.868,130.968 283.893,130.728 285.800 M282.000 284.217 C 282.000 284.337,282.475 284.922,283.056 285.517 L 284.112 286.600 283.229 285.300 C 282.394 284.072,282.000 283.725,282.000 284.217 M284.067 287.100 C 284.471 288.009,286.247 290.391,286.525 290.395 C 286.704 290.398,286.268 289.590,285.557 288.600 C 284.397 286.985,283.707 286.290,284.067 287.100 M86.564 287.789 C 85.828 288.339,85.832 288.352,86.667 288.142 C 87.326 287.976,87.901 288.331,89.067 289.622 C 93.169 294.163,99.679 299.222,101.382 299.193 C 101.612 299.189,100.857 298.666,99.705 298.030 C 96.284 296.144,93.813 294.151,90.477 290.585 C 87.567 287.475,87.269 287.262,86.564 287.789 M224.000 288.300 C 224.000 288.465,230.477 288.551,238.393 288.490 L 252.787 288.380 254.231 290.390 C 255.025 291.496,255.760 292.400,255.865 292.400 C 256.108 292.400,254.512 290.072,253.465 288.900 L 252.661 288.000 238.330 288.000 C 230.449 288.000,224.000 288.135,224.000 288.300 M84.594 289.900 C 84.210 290.505,83.515 291.458,83.048 292.019 C 82.582 292.579,82.740 292.473,83.400 291.784 C 85.208 289.897,86.032 288.800,85.642 288.800 C 85.450 288.800,84.978 289.295,84.594 289.900 M223.600 307.595 L 223.600 325.590 208.300 325.700 L 193.000 325.810 208.500 325.905 L 224.000 326.000 224.000 307.800 C 224.000 297.790,223.910 289.600,223.800 289.600 C 223.690 289.600,223.600 297.698,223.600 307.595 M286.815 291.000 C 286.829 291.494,288.362 293.373,288.574 293.157 C 288.659 293.070,288.295 292.460,287.766 291.800 C 287.237 291.140,286.809 290.780,286.815 291.000 M160.267 291.467 C 160.120 291.613,160.011 292.108,160.025 292.567 C 160.049 293.333,160.082 293.323,160.434 292.442 C 160.826 291.463,160.744 290.989,160.267 291.467 M126.779 295.422 C 126.251 295.984,126.088 296.341,126.418 296.214 C 126.939 296.015,128.234 294.400,127.873 294.400 C 127.800 294.400,127.307 294.860,126.779 295.422 M159.296 295.909 C 159.023 296.487,158.821 297.419,158.846 297.980 C 158.883 298.784,158.930 298.831,159.069 298.200 C 159.166 297.760,159.439 296.899,159.676 296.287 C 160.237 294.841,159.939 294.545,159.296 295.909 M258.060 295.995 C 258.546 296.652,259.019 297.115,259.111 297.022 C 259.334 296.799,257.887 294.829,257.488 294.813 C 257.316 294.806,257.574 295.338,258.060 295.995 M292.079 298.688 C 293.245 300.387,294.515 302.131,294.900 302.564 C 295.285 302.997,295.600 303.473,295.600 303.621 C 295.600 303.770,296.166 304.501,296.857 305.246 L 298.114 306.600 297.130 305.200 C 292.823 299.070,290.296 295.600,290.141 295.600 C 290.040 295.600,290.912 296.990,292.079 298.688 M77.655 298.281 C 76.695 299.503,76.094 300.389,76.319 300.250 C 76.995 299.832,80.101 295.998,79.737 296.030 C 79.552 296.046,78.615 297.059,77.655 298.281 M123.841 298.027 C 122.983 298.672,122.463 299.200,122.686 299.200 C 122.908 299.200,123.769 298.660,124.600 298.000 C 126.541 296.458,125.897 296.481,123.841 298.027 M259.988 298.723 C 260.482 299.451,260.976 299.957,261.084 299.849 C 261.192 299.741,260.788 299.146,260.184 298.526 L 259.088 297.400 259.988 298.723 M120.800 299.675 C 120.250 299.906,119.440 300.250,119.000 300.438 C 118.560 300.627,117.390 300.844,116.400 300.921 L 114.600 301.060 116.676 301.130 C 117.818 301.169,118.851 301.040,118.972 300.845 C 119.093 300.650,119.823 300.372,120.596 300.227 C 121.368 300.082,122.000 299.792,122.000 299.582 C 122.000 299.372,121.955 299.212,121.900 299.227 C 121.845 299.242,121.350 299.444,120.800 299.675 M105.146 300.578 C 105.886 300.920,107.326 301.174,108.346 301.141 L 110.200 301.082 108.000 300.789 C 106.790 300.628,105.350 300.374,104.800 300.226 C 104.186 300.060,104.319 300.196,105.146 300.578 M73.657 303.100 C 72.704 304.365,72.436 304.846,73.062 304.169 C 75.059 302.010,76.003 300.800,75.692 300.800 C 75.526 300.800,74.610 301.835,73.657 303.100 M264.673 305.500 C 266.382 308.219,268.915 311.619,269.096 311.437 C 269.206 311.328,269.004 310.947,268.648 310.590 C 268.291 310.234,268.000 309.810,268.000 309.647 C 268.000 309.484,267.685 309.002,267.300 308.575 C 266.915 308.149,266.102 307.035,265.494 306.100 C 264.886 305.165,264.297 304.400,264.185 304.400 C 264.073 304.400,264.293 304.895,264.673 305.500 M71.280 306.080 C 70.269 307.091,70.888 308.174,74.511 311.744 C 78.016 315.196,83.200 319.241,83.200 318.522 C 83.200 318.209,81.922 317.232,80.949 316.800 C 78.956 315.916,71.200 308.344,71.200 307.283 C 71.200 306.885,71.416 306.344,71.680 306.080 C 71.944 305.816,72.070 305.600,71.960 305.600 C 71.850 305.600,71.544 305.816,71.280 306.080 M155.211 306.187 C 154.943 306.509,154.793 306.980,154.877 307.232 C 154.961 307.484,155.245 307.220,155.507 306.645 C 156.040 305.474,155.937 305.312,155.211 306.187 M298.067 307.100 C 298.471 308.009,300.247 310.391,300.525 310.395 C 300.704 310.398,300.268 309.590,299.557 308.600 C 298.397 306.985,297.707 306.290,298.067 307.100 M153.300 309.507 C 152.835 310.336,150.866 312.616,148.927 314.573 C 146.635 316.886,146.107 317.551,147.418 316.473 C 150.303 314.100,155.402 308.000,154.501 308.000 C 154.306 308.000,153.766 308.678,153.300 309.507 M300.813 311.078 C 300.832 311.521,302.383 313.351,302.576 313.157 C 302.662 313.070,302.297 312.495,301.766 311.878 C 301.235 311.260,300.806 310.900,300.813 311.078 M271.023 314.700 C 273.820 318.688,274.427 319.100,271.949 315.329 C 270.767 313.529,269.649 312.044,269.465 312.029 C 269.281 312.013,269.982 313.215,271.023 314.700 M306.051 318.671 C 307.233 320.471,308.351 321.956,308.535 321.971 C 308.719 321.987,308.018 320.785,306.977 319.300 C 304.180 315.312,303.573 314.900,306.051 318.671 M143.400 318.988 C 142.740 319.529,142.380 319.971,142.600 319.971 C 142.820 319.971,143.540 319.529,144.200 318.988 C 144.860 318.447,145.220 318.004,145.000 318.004 C 144.780 318.004,144.060 318.447,143.400 318.988 M84.224 319.387 C 85.239 320.156,85.834 320.163,85.200 319.400 C 84.926 319.070,84.420 318.800,84.075 318.800 C 83.572 318.800,83.602 318.917,84.224 319.387 M86.033 320.157 C 86.333 320.439,89.219 322.000,89.441 322.000 C 89.560 322.000,89.387 321.730,89.057 321.400 C 88.727 321.070,88.185 320.800,87.852 320.800 C 87.519 320.800,87.136 320.620,87.000 320.400 C 86.864 320.180,86.553 320.000,86.310 320.000 C 86.066 320.000,85.942 320.071,86.033 320.157 M140.466 320.593 C 138.728 321.550,138.588 322.094,140.300 321.236 C 141.235 320.767,142.000 320.297,142.000 320.192 C 142.000 319.896,141.489 320.029,140.466 320.593 M276.060 321.995 C 276.546 322.652,277.019 323.115,277.111 323.022 C 277.334 322.799,275.887 320.829,275.488 320.813 C 275.316 320.806,275.574 321.338,276.060 321.995 M309.519 323.597 C 309.893 324.256,310.347 324.796,310.527 324.797 C 310.707 324.799,310.470 324.260,310.000 323.600 C 308.902 322.058,308.642 322.057,309.519 323.597 M92.600 323.085 C 93.040 323.191,93.571 323.440,93.780 323.639 C 93.989 323.837,94.338 324.000,94.556 324.000 C 94.775 324.000,94.604 323.736,94.176 323.413 C 93.749 323.090,93.040 322.841,92.600 322.859 L 91.800 322.893 92.600 323.085 M134.224 323.413 C 133.241 324.156,133.547 324.157,135.254 323.416 C 136.186 323.011,136.354 322.830,135.800 322.828 C 135.360 322.827,134.651 323.090,134.224 323.413 M277.959 324.700 L 278.854 326.000 294.804 326.000 C 303.576 326.000,310.836 325.865,310.938 325.700 C 311.040 325.535,304.000 325.449,295.293 325.509 L 279.463 325.618 278.263 324.509 L 277.064 323.400 277.959 324.700 M99.600 325.190 C 100.370 325.353,101.540 325.612,102.200 325.763 C 103.379 326.035,103.376 326.029,102.054 325.420 C 101.314 325.079,100.144 324.821,99.454 324.846 L 98.200 324.892 99.600 325.190 M126.400 325.431 L 125.400 326.033 126.400 325.744 C 126.950 325.584,128.120 325.329,129.000 325.177 L 130.600 324.900 129.000 324.864 C 128.120 324.844,126.950 325.099,126.400 325.431 M107.800 326.418 C 108.900 326.590,110.340 326.724,111.000 326.718 L 112.200 326.705 111.000 326.400 C 110.340 326.232,108.900 326.097,107.800 326.101 L 105.800 326.107 107.800 326.418 M115.800 326.400 C 114.065 326.841,117.539 326.858,120.000 326.420 L 121.800 326.100 119.400 326.097 C 118.080 326.096,116.460 326.232,115.800 326.400 " stroke="none" fill="#747474" fill-rule="evenodd"></path></g></svg>